<?xml version="1.0" encoding="utf-8"?>
<!-- Generator: Adobe Illustrator 16.0.0, SVG Export Plug-In . SVG Version: 6.00 Build 0)  -->
<!DOCTYPE svg PUBLIC "-//W3C//DTD SVG 1.1//EN" "http://www.w3.org/Graphics/SVG/1.1/DTD/svg11.dtd">
<svg version="1.1" id="Layer_1" xmlns="http://www.w3.org/2000/svg" xmlns:xlink="http://www.w3.org/1999/xlink" x="0px" y="0px"
	 width="300px" height="300px" viewBox="0 0 300 300" enable-background="new 0 0 300 300" xml:space="preserve">
<g>
	<g>
		<path fill="#2E2A25" d="M187.437,219.547c-10.383,0-18.799-8.369-18.799-18.693s8.416-18.693,18.799-18.693
			c5.309,0,10.096,2.197,13.514,5.719l4.383-4.385c-4.508-4.547-10.773-7.369-17.703-7.369c-9.533,0-17.793,5.262-21.967,13.092l0,0
			c-2.031-3.801-5.02-7.016-8.678-9.316c-3.932-2.475-8.479-3.785-13.147-3.785c-4.734,0-9.329,1.34-13.295,3.873
			c-3.695,2.357-6.69,5.641-8.69,9.521c-1.974-3.668-4.868-6.77-8.407-8.992c-3.812-2.395-8.218-3.662-12.744-3.662
			c-0.16,0-17.014,0.014-17.014,0.014v47.971c0,0,16.854,0.006,17.014,0.006c4.526,0,8.932-1.266,12.744-3.658
			c3.539-2.227,6.434-5.326,8.407-8.994c2,3.879,4.995,7.16,8.69,9.518c3.966,2.539,8.561,3.875,13.295,3.875
			c3.941,0,12.663-1.527,17.503-7.316l0.184-0.219l-4.346-4.162c0,0-0.961,1.004-2.314,2.025c-3.189,2.406-7.046,3.633-11.026,3.633
			c-4.53,0-8.895-1.641-12.299-4.623c-3.275-2.873-5.449-6.797-6.137-11.078h37.536l0.008-0.047
			c1.465,12.268,11.953,21.783,24.684,21.783c6.885,0,13.113-2.783,17.615-7.277l-4.381-4.381
			C197.45,217.391,192.7,219.547,187.437,219.547z M100.701,218.973c-0.037,0-7.072-0.006-11.027-0.012V182.74
			c3.955-0.006,10.99-0.008,11.027-0.008c9.994,0,18.122,8.129,18.122,18.121C118.823,210.842,110.695,218.973,100.701,218.973z
			 M125.402,197.857c0.688-4.281,2.861-8.203,6.137-11.076c3.404-2.982,7.769-4.623,12.299-4.623c4.523,0,8.894,1.641,12.292,4.623
			c3.279,2.873,5.449,6.795,6.139,11.076H125.402z"/>
		<g>
			<path fill="#2E2A25" d="M215.593,181.557c0,1.113-0.396,2.062-1.186,2.846c-0.779,0.791-1.732,1.184-2.844,1.184
				c-1.109,0-2.059-0.393-2.848-1.184c-0.785-0.783-1.178-1.732-1.178-2.846c0-1.109,0.393-2.059,1.178-2.846
				c0.789-0.783,1.738-1.18,2.848-1.18c1.111,0,2.064,0.396,2.844,1.18C215.196,179.498,215.593,180.447,215.593,181.557z
				 M214.702,181.557c0-0.863-0.307-1.607-0.918-2.229c-0.615-0.621-1.352-0.934-2.221-0.934c-0.865,0-1.604,0.312-2.217,0.934
				c-0.615,0.621-0.916,1.365-0.916,2.229c0,0.867,0.301,1.611,0.916,2.23c0.613,0.623,1.352,0.932,2.217,0.932
				c0.869,0,1.605-0.309,2.221-0.932C214.396,183.168,214.702,182.424,214.702,181.557z M213.745,183.469h-1.223l-1.164-1.473
				h-0.383v1.473h-0.945v-4.008h1.461c0.266,0,0.484,0.008,0.648,0.031c0.168,0.021,0.326,0.076,0.492,0.168
				c0.176,0.104,0.311,0.227,0.389,0.371s0.121,0.324,0.121,0.547c0,0.295-0.08,0.537-0.238,0.725
				c-0.158,0.186-0.367,0.332-0.615,0.436L213.745,183.469z M212.085,180.65c0-0.082-0.014-0.16-0.051-0.229
				c-0.037-0.072-0.094-0.127-0.174-0.174c-0.068-0.039-0.15-0.064-0.242-0.078c-0.09-0.012-0.201-0.018-0.342-0.018h-0.301v1.129
				h0.232c0.139,0,0.271-0.01,0.391-0.033c0.125-0.021,0.217-0.062,0.289-0.119c0.062-0.049,0.119-0.111,0.146-0.191
				C212.071,180.861,212.085,180.766,212.085,180.65z"/>
		</g>
		<path fill="#2E2A25" d="M116.719,247.443l-0.15,0.188c-0.848,1.055-1.773,1.525-3.005,1.525c-2.011,0-3.095-1.637-3.095-3.178
			c0-1.781,1.398-3.176,3.184-3.176c1.107,0,2.014,0.473,2.854,1.488l0.195,0.182h0.734v-3.006l-0.219-0.148
			c-1.025-0.697-2.268-1.08-3.498-1.08c-3.404,0-6.069,2.521-6.069,5.74c0,3.273,2.6,5.74,6.047,5.74
			c1.278,0,2.414-0.346,3.576-1.092l0.229-0.148v-2.535l-0.044-0.5H116.719z"/>
		<path fill="#2E2A25" d="M134.764,241.295c-0.885-0.68-1.975-1.057-3.117-1.057c-3.195,0-5.515,2.424-5.515,5.762
			c0,3.26,2.361,5.719,5.492,5.719c1.196,0,2.263-0.348,3.14-1.018v0.744h2.774v-10.932h-2.774V241.295z M131.868,249.156
			c-2.005,0-2.917-1.701-2.917-3.283c0-1.488,1.015-3.07,2.895-3.07c2.076,0,3.006,1.553,3.006,3.092
			C134.852,247.398,134.07,249.156,131.868,249.156z"/>
		<path fill="#2E2A25" d="M158.427,240.238c-1.268,0-2.385,0.471-3.119,1.285c-0.695-0.807-1.748-1.285-2.895-1.285
			c-0.756,0-1.463,0.234-2.051,0.664v-0.389h-2.774v10.932h2.774v-5.635c0-2.109,0.541-3.008,1.807-3.008
			c0.676,0,1.365,0.297,1.365,2.5v6.143h2.773v-5.762c0-2.047,0.512-2.881,1.764-2.881c1.191,0,1.408,0.799,1.408,2.373v6.27h2.775
			v-6.543C162.255,241.895,160.896,240.238,158.427,240.238z"/>
		<path fill="#2E2A25" d="M178.218,240.238c-1.189,0-2.271,0.361-3.139,1.037v-0.762h-2.775v16.51h2.775v-6.326
			c0.861,0.658,1.949,1.021,3.117,1.021c3.195,0,5.514-2.404,5.514-5.719C183.71,243.207,181.786,240.238,178.218,240.238z
			 M180.892,245.895c0,1.504-0.781,3.262-2.984,3.262c-2.004,0-2.916-1.701-2.916-3.283c0-1.488,1.014-3.07,2.895-3.07
			C179.962,242.803,180.892,244.355,180.892,245.895z"/>
	</g>
	<g>
		<path fill="#2E2A25" d="M132.062,123.149c5.266-2.442,7.32-8.196,3.534-13.107C131.619,111.887,127.996,116.678,132.062,123.149z"
			/>
		<path fill="#2E2A25" d="M156.38,123.149c4.064-6.471,0.443-11.262-3.533-13.107C149.061,114.953,151.114,120.707,156.38,123.149z"
			/>
		<path fill="#2E2A25" d="M193.749,86.026c-3.611-4.88-9.623-9.209-15.453-10.941c-7.914-2.354-16.574-3.241-24.754-1.989
			c-1.162,0.178-4.873,0.689-7.354,1.604c-0.12-1.748-0.125-5.757,0.123-6.938c0.805-3.82,4.868-7.68,10.208-11.158l-2.486-3.306
			c-4.794,3.122-8.177,6.536-10.125,10.191c-3.296-12.887-12.666-18.171-23.982-19.267c-0.511,13.285,8.712,24.56,22.103,26.082
			c-0.071,1.455-0.084,3.219-0.055,4.584c-2.453-1.034-6.601-1.604-7.841-1.793c-8.18-1.252-16.839-0.365-24.755,1.989
			c-5.83,1.732-11.842,6.062-15.452,10.941c-5.194,7.022-6.136,15.603-6.192,24.085c-0.113,17.161,7.553,35.484,20.303,47.057
			c6.149,5.582,14.01,9.713,22.467,9.779c1.457,0.012,13.336-0.408,13.336-2.051c0,1.643,11.876,2.062,13.333,2.051
			c8.457-0.066,16.318-4.197,22.467-9.779c12.752-11.573,20.416-29.896,20.303-47.057
			C199.884,101.628,198.942,93.048,193.749,86.026z M143.43,133.496c-1.244,0.416-2.557,0.65-3.922,0.65
			c-0.211,0.015-0.42,0.021-0.631,0.021c-8.498,0-15.867-12.006-14.98-21.73c0-3.525,1.087-6.105,2.883-7.948
			c1.273-1.084,2.703-2.09,4.116-2.644c0.004-0.002,0.008-0.004,0.011-0.006c0.084-0.027,2.983-0.992,6.514-0.992
			c1.935,0,4.057,0.297,6.01,1.188V133.496z M143.43,98.535c-1.814-0.624-3.821-0.952-6.009-0.952c-3.991,0-7.204,1.046-7.558,1.165
			l-0.212,0.07l-0.083,0.041c-1.531,0.621-3.187,1.682-4.904,3.145l-0.116,0.098l-0.105,0.109c-2.499,2.562-3.779,5.953-3.81,10.078
			c-0.559,6.666,2.125,14.297,6.861,19.485c3.332,3.649,7.375,5.658,11.383,5.658c0.247,0,0.496-0.007,0.742-0.022
			c1.29-0.01,2.564-0.186,3.811-0.51v14.174c-1.435,0.846-1.918,5.338-3.988,7.406c-1.596,1.596-2.868,2.234-3.479,2.475
			c-25.162,3.379-42.5-27.814-42.461-50.495c0.01-5.779,0.303-11.842,2.788-17.152c2.72-5.811,8.23-10.167,14.139-12.506
			c10.624-3.438,22.893-3.699,33.001,1.344V98.535z M144.246,102.035c1.954-0.891,4.074-1.188,6.007-1.188
			c3.531,0,6.432,0.965,6.514,0.992c0.006,0.002,0.008,0.004,0.012,0.006c1.414,0.554,2.844,1.56,4.117,2.644
			c1.795,1.843,2.881,4.423,2.881,7.948c0.887,9.725-6.48,21.73-14.979,21.73c-0.21,0-0.419-0.007-0.63-0.021
			c-1.365,0-2.678-0.234-3.922-0.65V102.035z M151.64,160.947c-0.617-0.248-1.879-0.889-3.457-2.467
			c-2.044-2.043-2.542-6.445-3.937-7.371v-14.208c1.246,0.323,2.52,0.499,3.81,0.509c0.247,0.015,0.495,0.022,0.742,0.022
			c4.01,0,8.051-2.01,11.383-5.659c4.734-5.188,7.418-12.818,6.861-19.484c-0.031-4.125-1.312-7.514-3.809-10.078l-0.107-0.109
			l-0.115-0.099c-1.711-1.455-3.357-2.51-4.895-3.138l-0.004-0.002l-0.135-0.055l-0.086-0.033l-0.086-0.029
			c-0.355-0.119-3.582-1.163-7.553-1.163c-2.187,0-4.192,0.328-6.007,0.951V82.145c10.106-5.042,22.374-4.78,32.999-1.343
			c5.908,2.339,11.418,6.695,14.139,12.506c2.484,5.311,2.777,11.373,2.787,17.152C194.21,133.162,176.839,164.395,151.64,160.947z"
			/>
	</g>
	<path fill="#F46178" d="M138.878,137.432c-4.008,0-8.051-2.009-11.383-5.658c-4.736-5.188-7.42-12.819-6.861-19.485
		c0.03-4.125,1.311-7.516,3.81-10.078l0.105-0.109l0.116-0.098c1.718-1.463,3.373-2.523,4.904-3.145l0.083-0.041l0.212-0.07
		c0.354-0.119,3.566-1.165,7.558-1.165c2.188,0,4.194,0.328,6.009,0.952V82.146c-10.108-5.043-22.377-4.781-33.001-1.344
		c-5.908,2.339-11.42,6.695-14.139,12.506c-2.486,5.311-2.779,11.373-2.789,17.152c-0.038,22.681,17.3,53.874,42.461,50.495
		c0.611-0.24,1.884-0.879,3.479-2.475c2.07-2.068,2.555-6.561,3.989-7.406V136.9c-1.246,0.324-2.521,0.5-3.811,0.51
		C139.374,137.425,139.125,137.432,138.878,137.432z"/>
	<path fill="#D60057" d="M191.384,93.308c-2.719-5.811-8.23-10.167-14.139-12.506c-10.623-3.438-22.891-3.699-32.999,1.343v16.389
		h0.001c1.814-0.623,3.82-0.951,6.008-0.951c3.971,0,7.197,1.044,7.553,1.163l0.086,0.029l0.086,0.033l0.135,0.055l0.004,0.002
		c1.537,0.628,3.184,1.683,4.895,3.138l0.115,0.099l0.107,0.109c2.496,2.564,3.777,5.953,3.809,10.078
		c0.557,6.666-2.127,14.297-6.861,19.484c-3.332,3.649-7.373,5.659-11.384,5.659c-0.247,0-0.495-0.008-0.742-0.022
		c-1.29-0.01-2.563-0.186-3.81-0.509h-0.001v14.208c1.395,0.926,1.893,5.328,3.938,7.371c1.577,1.578,2.839,2.219,3.456,2.467
		c25.201,3.447,42.57-27.786,42.533-50.487C194.163,104.681,193.87,98.619,191.384,93.308z"/>
</g>
</svg>
